G04 Layer_Physical_Order=1*
G04 Layer_Color=25308*
%FSLAX25Y25*%
%MOIN*%
G70*
G01*
G75*
%ADD10R,0.07874X0.04331*%
%ADD11R,0.04331X0.07874*%
%ADD12R,0.04724X0.07874*%
%ADD13R,0.08268X0.05512*%
%ADD14R,0.04331X0.04921*%
%ADD15R,0.03150X0.03937*%
%ADD16R,0.08504X0.06000*%
%ADD17R,0.04331X0.02559*%
%ADD18R,0.07087X0.05118*%
%ADD19R,0.05118X0.07087*%
%ADD20R,0.02756X0.03347*%
%ADD21R,0.11024X0.03543*%
%ADD22R,0.05500X0.01500*%
%ADD23O,0.06693X0.01378*%
%ADD24C,0.01000*%
%ADD25C,0.01500*%
%ADD26O,0.05906X0.12598*%
%ADD27C,0.02200*%
D10*
X431807Y347539D02*
D03*
Y355413D02*
D03*
Y363287D02*
D03*
Y371161D02*
D03*
Y339665D02*
D03*
Y331791D02*
D03*
D11*
X376689Y382972D02*
D03*
X384563D02*
D03*
X392437D02*
D03*
X400311D02*
D03*
X408185D02*
D03*
X416059D02*
D03*
X368815D02*
D03*
X416059Y319980D02*
D03*
X408185D02*
D03*
X400311D02*
D03*
X392437D02*
D03*
X384563D02*
D03*
X376689D02*
D03*
X368815D02*
D03*
X423933D02*
D03*
Y382972D02*
D03*
D12*
X395437Y283236D02*
D03*
X387563D02*
D03*
X377720D02*
D03*
X405279D02*
D03*
D13*
X432913Y449335D02*
D03*
X397087D02*
D03*
Y431618D02*
D03*
X432913D02*
D03*
D14*
X370000Y289130D02*
D03*
Y295823D02*
D03*
X409000Y308823D02*
D03*
Y302130D02*
D03*
D15*
X364547Y418476D02*
D03*
X370453D02*
D03*
X350547D02*
D03*
X356453D02*
D03*
D16*
X383000Y433976D02*
D03*
Y443976D02*
D03*
X350480Y433976D02*
D03*
Y443976D02*
D03*
D17*
X418776Y292736D02*
D03*
Y300217D02*
D03*
X428224D02*
D03*
Y296476D02*
D03*
Y292736D02*
D03*
D18*
X426500Y282988D02*
D03*
Y271965D02*
D03*
D19*
X416988Y309476D02*
D03*
X428012D02*
D03*
D20*
X381764Y418476D02*
D03*
X377236D02*
D03*
D21*
X391130Y392476D02*
D03*
Y398146D02*
D03*
Y403815D02*
D03*
Y409484D02*
D03*
Y415154D02*
D03*
X430500D02*
D03*
Y409484D02*
D03*
Y403815D02*
D03*
Y398146D02*
D03*
Y392476D02*
D03*
D22*
X400500Y311726D02*
D03*
Y309226D02*
D03*
Y306726D02*
D03*
Y304226D02*
D03*
Y301676D02*
D03*
Y299176D02*
D03*
Y296676D02*
D03*
Y294176D02*
D03*
X379500D02*
D03*
Y296676D02*
D03*
Y299176D02*
D03*
Y301676D02*
D03*
Y304226D02*
D03*
Y306726D02*
D03*
Y309226D02*
D03*
Y311726D02*
D03*
D23*
X353279Y409433D02*
D03*
Y406874D02*
D03*
Y404315D02*
D03*
Y401756D02*
D03*
Y399197D02*
D03*
Y396638D02*
D03*
Y394079D02*
D03*
Y391520D02*
D03*
X375721Y409433D02*
D03*
Y406874D02*
D03*
Y404315D02*
D03*
Y401756D02*
D03*
Y399197D02*
D03*
Y396638D02*
D03*
Y394079D02*
D03*
Y391520D02*
D03*
D24*
X361500Y334976D02*
X374000Y347476D01*
X361500Y312476D02*
Y334976D01*
X364000Y331476D02*
X377000Y344476D01*
Y348476D01*
X374500Y350976D02*
X377000Y348476D01*
X372000Y350976D02*
X374500D01*
X368000Y373976D02*
X369000Y374976D01*
X381000D01*
X354500Y375476D02*
X357000D01*
X371000Y370476D02*
X416059Y325417D01*
Y319980D02*
Y325417D01*
X376500Y371476D02*
X387500D01*
X353000D02*
X357000D01*
X368815Y377661D02*
Y382972D01*
X376689Y377787D02*
Y382972D01*
X384563Y325413D02*
Y344413D01*
X360000Y368976D02*
X384563Y344413D01*
X360000Y368976D02*
Y389976D01*
X364500Y389476D02*
X371661Y396638D01*
X364500Y373476D02*
Y389476D01*
Y373476D02*
X408185Y329791D01*
X362000Y371976D02*
X363500Y370476D01*
X362000Y371976D02*
Y389476D01*
X408185Y319980D02*
Y329791D01*
X353476Y396638D02*
X362500D01*
X361500Y405476D02*
X369000Y412976D01*
X360000Y405476D02*
X361500D01*
X356279Y401756D02*
X360000Y405476D01*
X353476Y401756D02*
X356279D01*
X360000Y389976D02*
X368500Y398476D01*
Y405976D01*
X371661Y396638D02*
X375524D01*
X362000Y389476D02*
X371721Y399197D01*
X375524D01*
X374524Y409433D02*
Y418453D01*
Y409433D02*
X375524D01*
X371957D02*
X374524D01*
X368500Y405976D02*
X371957Y409433D01*
X375500Y422976D02*
X376500Y423976D01*
X383492Y409484D02*
X391130D01*
X383000Y409976D02*
X383492Y409484D01*
X382161Y404315D02*
X383000Y403476D01*
X375524Y404315D02*
X382161D01*
X364547Y424524D02*
X374500Y434476D01*
X364547Y418476D02*
Y424524D01*
X374500Y434476D02*
X383500D01*
X402500Y405476D02*
X420000D01*
X396500D02*
X402500D01*
Y414476D01*
X398500Y418476D02*
X402500Y414476D01*
X381764Y418476D02*
X398500D01*
X400000Y402976D02*
X410500Y392476D01*
X421661Y403815D02*
X430500D01*
X420000Y405476D02*
X421661Y403815D01*
X394839D02*
X396500Y405476D01*
X391130Y403815D02*
X394839D01*
X422831Y398146D02*
X430500D01*
X353476Y409433D02*
X360957D01*
X353476Y399197D02*
X358279D01*
X353476Y394079D02*
X358398D01*
X384000Y413976D02*
X385177Y415154D01*
X391130D01*
X410500Y392476D02*
X430500D01*
X375524Y406874D02*
X381602D01*
X384000Y392476D02*
X391130D01*
X422933Y316910D02*
Y322043D01*
X423933Y319980D02*
Y325043D01*
X384563Y319980D02*
Y325413D01*
X370453Y418476D02*
Y422429D01*
X356453Y418476D02*
Y422429D01*
X387500Y371476D02*
X392437Y376413D01*
Y382972D01*
X381000Y374976D02*
X384563Y378539D01*
Y382972D01*
X370476Y418453D02*
X374524D01*
X377213D01*
X350547Y418476D02*
Y421524D01*
X373500Y444476D01*
X383500D01*
X350980D02*
X356500D01*
X350980Y434476D02*
Y444476D01*
X403500Y450335D02*
X431413D01*
X395587D02*
X403500D01*
X352476Y389500D02*
Y391520D01*
X423933Y376909D02*
Y382972D01*
X416059Y377035D02*
Y382972D01*
X431413Y427563D02*
Y432618D01*
X395587D02*
X431413D01*
X400311Y377665D02*
Y382972D01*
X416988Y310965D02*
X422933Y316910D01*
X416988Y309476D02*
Y310965D01*
X369059Y272500D02*
X377720Y281161D01*
Y283236D01*
X423500Y297476D02*
X424500Y296476D01*
X423500D02*
Y297476D01*
X428012Y309476D02*
X432500D01*
X416988Y307965D02*
Y309476D01*
X407500Y308823D02*
X416335D01*
X414476Y271965D02*
X426500D01*
X414500Y305476D02*
X416988Y307965D01*
X414500Y295476D02*
Y305476D01*
Y295476D02*
X417240Y292736D01*
X418776D01*
X428012Y307988D02*
Y309476D01*
X423500Y303476D02*
X428012Y307988D01*
X423500Y297476D02*
Y303476D01*
X424500Y296476D02*
X428224D01*
X433500Y294476D02*
Y298476D01*
X431760Y300217D02*
X433500Y298476D01*
X428224Y300217D02*
X431760D01*
X428224Y292736D02*
X431760D01*
X433500Y294476D01*
X428224Y288201D02*
Y292736D01*
X426500Y286476D02*
X428224Y288201D01*
X426500Y282988D02*
Y286476D01*
X405279Y283236D02*
X426252D01*
X370130Y283846D02*
Y289000D01*
X370000Y295823D02*
X373847D01*
X364000Y313976D02*
Y331476D01*
Y313976D02*
X366250Y311726D01*
X379500D01*
X361500Y312476D02*
X369750Y304226D01*
X379500D01*
X406403D02*
X408500Y302130D01*
X400500Y311726D02*
X404250D01*
X405000Y310976D01*
Y304226D02*
Y310976D01*
X400500Y304226D02*
X405000D01*
X406403D01*
X379500Y306726D02*
X384250D01*
X391800Y299176D01*
X400500D01*
X373700Y301676D02*
X379500D01*
X373700Y295969D02*
Y301676D01*
Y295969D02*
X373847Y295823D01*
X394300Y296676D02*
X400500D01*
X391800Y299176D02*
X394300Y296676D01*
X407500Y302130D02*
X410500Y299130D01*
Y297976D02*
Y299130D01*
X400500Y301676D02*
X403800D01*
X405000Y300476D01*
Y283516D02*
Y300476D01*
Y283516D02*
X405279Y283236D01*
X399500Y289476D02*
X400500D01*
X405000Y284976D01*
Y283516D02*
Y284976D01*
X348500Y381476D02*
X354500Y375476D01*
X346500Y377976D02*
X353000Y371476D01*
X346500Y377976D02*
Y414429D01*
X350547Y418476D01*
X348500Y381476D02*
Y410476D01*
X351500Y413476D01*
X359547D01*
X364547Y418476D01*
X375524Y401756D02*
X380720D01*
X384331Y398146D01*
X391130D01*
X376500Y423976D02*
X418000D01*
X426823Y415154D01*
X430500D01*
X423492Y409484D02*
X430500D01*
X386500Y420976D02*
X412000D01*
X423492Y409484D01*
D25*
X394000Y284673D02*
X395437Y283236D01*
X379500Y294176D02*
X383300D01*
X387563Y283236D02*
X389000Y284673D01*
Y288476D01*
X383300Y294176D02*
X389000Y288476D01*
X394000Y284673D02*
Y289476D01*
X398700Y294176D01*
X400500D01*
D26*
X369059Y272500D02*
D03*
X413941D02*
D03*
D27*
X374000Y347476D02*
D03*
X372000Y350976D02*
D03*
X368000Y373976D02*
D03*
X357000Y375476D02*
D03*
X371000Y370476D02*
D03*
X376500Y371476D02*
D03*
X357000D02*
D03*
X368815Y377661D02*
D03*
X376689Y377787D02*
D03*
X363500Y370476D02*
D03*
X362500Y396638D02*
D03*
X358500Y399976D02*
D03*
X386500Y420976D02*
D03*
X375500Y422976D02*
D03*
X369000Y412976D02*
D03*
X383000Y409976D02*
D03*
X381602Y406874D02*
D03*
X383000Y403476D02*
D03*
X400000Y402976D02*
D03*
X422831Y398146D02*
D03*
X360957Y409433D02*
D03*
X358398Y394079D02*
D03*
X384000Y413976D02*
D03*
Y392476D02*
D03*
X423933Y325043D02*
D03*
X384563Y325413D02*
D03*
X370453Y422429D02*
D03*
X356453D02*
D03*
X356500Y444476D02*
D03*
X403500Y450335D02*
D03*
X352476Y389500D02*
D03*
X423933Y376909D02*
D03*
X416059Y377035D02*
D03*
X431413Y427563D02*
D03*
X400311Y377665D02*
D03*
X423500Y296476D02*
D03*
X432500Y309476D02*
D03*
X370130Y283846D02*
D03*
X399500Y289476D02*
D03*
X373847Y295823D02*
D03*
X410500Y297976D02*
D03*
M02*
