G04 Layer_Color=7318015*
%FSLAX25Y25*%
%MOIN*%
G70*
G01*
G75*
%ADD10R,0.07874X0.04331*%
%ADD11R,0.04331X0.07874*%
%ADD12R,0.04724X0.07874*%
%ADD13R,0.08268X0.05512*%
%ADD14R,0.04331X0.04921*%
%ADD15R,0.03150X0.03937*%
%ADD16R,0.08504X0.06000*%
%ADD17R,0.04331X0.02559*%
%ADD18R,0.07087X0.05118*%
%ADD19R,0.05118X0.07087*%
%ADD20R,0.02756X0.03347*%
%ADD21R,0.11024X0.03543*%
%ADD22R,0.05500X0.01500*%
%ADD23O,0.06693X0.01378*%
D10*
X431807Y347539D02*
D03*
Y355413D02*
D03*
Y363287D02*
D03*
Y371161D02*
D03*
Y339665D02*
D03*
Y331791D02*
D03*
D11*
X376689Y382972D02*
D03*
X384563D02*
D03*
X392437D02*
D03*
X400311D02*
D03*
X408185D02*
D03*
X416059D02*
D03*
X368815D02*
D03*
X416059Y319980D02*
D03*
X408185D02*
D03*
X400311D02*
D03*
X392437D02*
D03*
X384563D02*
D03*
X376689D02*
D03*
X368815D02*
D03*
X423933D02*
D03*
Y382972D02*
D03*
D12*
X395437Y283236D02*
D03*
X387563D02*
D03*
X377720D02*
D03*
X405279D02*
D03*
D13*
X432913Y449335D02*
D03*
X397087D02*
D03*
Y431618D02*
D03*
X432913D02*
D03*
D14*
X370000Y289130D02*
D03*
Y295823D02*
D03*
X409000Y308823D02*
D03*
Y302130D02*
D03*
D15*
X364547Y418476D02*
D03*
X370453D02*
D03*
X350547D02*
D03*
X356453D02*
D03*
D16*
X383000Y433976D02*
D03*
Y443976D02*
D03*
X350480Y433976D02*
D03*
Y443976D02*
D03*
D17*
X418776Y292736D02*
D03*
Y300217D02*
D03*
X428224D02*
D03*
Y296476D02*
D03*
Y292736D02*
D03*
D18*
X426500Y282988D02*
D03*
Y271965D02*
D03*
D19*
X416988Y309476D02*
D03*
X428012D02*
D03*
D20*
X381764Y418476D02*
D03*
X377236D02*
D03*
D21*
X391130Y392476D02*
D03*
Y398146D02*
D03*
Y403815D02*
D03*
Y409484D02*
D03*
Y415154D02*
D03*
X430500D02*
D03*
Y409484D02*
D03*
Y403815D02*
D03*
Y398146D02*
D03*
Y392476D02*
D03*
D22*
X400500Y311726D02*
D03*
Y309226D02*
D03*
Y306726D02*
D03*
Y304226D02*
D03*
Y301676D02*
D03*
Y299176D02*
D03*
Y296676D02*
D03*
Y294176D02*
D03*
X379500D02*
D03*
Y296676D02*
D03*
Y299176D02*
D03*
Y301676D02*
D03*
Y304226D02*
D03*
Y306726D02*
D03*
Y309226D02*
D03*
Y311726D02*
D03*
D23*
X353279Y409433D02*
D03*
Y406874D02*
D03*
Y404315D02*
D03*
Y401756D02*
D03*
Y399197D02*
D03*
Y396638D02*
D03*
Y394079D02*
D03*
Y391520D02*
D03*
X375721Y409433D02*
D03*
Y406874D02*
D03*
Y404315D02*
D03*
Y401756D02*
D03*
Y399197D02*
D03*
Y396638D02*
D03*
Y394079D02*
D03*
Y391520D02*
D03*
M02*
