G04 Layer_Color=20142*
%FSLAX25Y25*%
%MOIN*%
G70*
G01*
G75*
%ADD34R,0.08674X0.05131*%
%ADD35R,0.05131X0.08674*%
%ADD36R,0.05524X0.08674*%
%ADD37R,0.09068X0.06312*%
%ADD38R,0.05131X0.05721*%
%ADD39R,0.03950X0.04737*%
%ADD40R,0.09304X0.06800*%
%ADD41R,0.05131X0.03359*%
%ADD42R,0.07887X0.05918*%
%ADD43R,0.05918X0.07887*%
%ADD44R,0.03556X0.04147*%
%ADD45R,0.11824X0.04343*%
%ADD46R,0.06300X0.02300*%
%ADD47O,0.07493X0.02178*%
%ADD48O,0.06706X0.13398*%
%ADD49C,0.03000*%
D34*
X431807Y347539D02*
D03*
Y355413D02*
D03*
Y363287D02*
D03*
Y371161D02*
D03*
Y339665D02*
D03*
Y331791D02*
D03*
D35*
X376689Y382972D02*
D03*
X384563D02*
D03*
X392437D02*
D03*
X400311D02*
D03*
X408185D02*
D03*
X416059D02*
D03*
X368815D02*
D03*
X416059Y319980D02*
D03*
X408185D02*
D03*
X400311D02*
D03*
X392437D02*
D03*
X384563D02*
D03*
X376689D02*
D03*
X368815D02*
D03*
X423933D02*
D03*
Y382972D02*
D03*
D36*
X395437Y283236D02*
D03*
X387563D02*
D03*
X377720D02*
D03*
X405279D02*
D03*
D37*
X432913Y449335D02*
D03*
X397087D02*
D03*
Y431618D02*
D03*
X432913D02*
D03*
D38*
X370000Y289130D02*
D03*
Y295823D02*
D03*
X409000Y308823D02*
D03*
Y302130D02*
D03*
D39*
X364547Y418476D02*
D03*
X370453D02*
D03*
X350547D02*
D03*
X356453D02*
D03*
D40*
X383000Y433976D02*
D03*
Y443976D02*
D03*
X350480Y433976D02*
D03*
Y443976D02*
D03*
D41*
X418776Y292736D02*
D03*
Y300217D02*
D03*
X428224D02*
D03*
Y296476D02*
D03*
Y292736D02*
D03*
D42*
X426500Y282988D02*
D03*
Y271965D02*
D03*
D43*
X416988Y309476D02*
D03*
X428012D02*
D03*
D44*
X381764Y418476D02*
D03*
X377236D02*
D03*
D45*
X391130Y392476D02*
D03*
Y398146D02*
D03*
Y403815D02*
D03*
Y409484D02*
D03*
Y415154D02*
D03*
X430500D02*
D03*
Y409484D02*
D03*
Y403815D02*
D03*
Y398146D02*
D03*
Y392476D02*
D03*
D46*
X400500Y311726D02*
D03*
Y309226D02*
D03*
Y306726D02*
D03*
Y304226D02*
D03*
Y301676D02*
D03*
Y299176D02*
D03*
Y296676D02*
D03*
Y294176D02*
D03*
X379500D02*
D03*
Y296676D02*
D03*
Y299176D02*
D03*
Y301676D02*
D03*
Y304226D02*
D03*
Y306726D02*
D03*
Y309226D02*
D03*
Y311726D02*
D03*
D47*
X353279Y409433D02*
D03*
Y406874D02*
D03*
Y404315D02*
D03*
Y401756D02*
D03*
Y399197D02*
D03*
Y396638D02*
D03*
Y394079D02*
D03*
Y391520D02*
D03*
X375721Y409433D02*
D03*
Y406874D02*
D03*
Y404315D02*
D03*
Y401756D02*
D03*
Y399197D02*
D03*
Y396638D02*
D03*
Y394079D02*
D03*
Y391520D02*
D03*
D48*
X369059Y272500D02*
D03*
X413941D02*
D03*
D49*
X374000Y347476D02*
D03*
X372000Y350976D02*
D03*
X368000Y373976D02*
D03*
X357000Y375476D02*
D03*
X371000Y370476D02*
D03*
X376500Y371476D02*
D03*
X357000D02*
D03*
X368815Y377661D02*
D03*
X376689Y377787D02*
D03*
X363500Y370476D02*
D03*
X362500Y396638D02*
D03*
X358500Y399976D02*
D03*
X386500Y420976D02*
D03*
X375500Y422976D02*
D03*
X369000Y412976D02*
D03*
X383000Y409976D02*
D03*
X381602Y406874D02*
D03*
X383000Y403476D02*
D03*
X400000Y402976D02*
D03*
X422831Y398146D02*
D03*
X360957Y409433D02*
D03*
X358398Y394079D02*
D03*
X384000Y413976D02*
D03*
Y392476D02*
D03*
X423933Y325043D02*
D03*
X384563Y325413D02*
D03*
X370453Y422429D02*
D03*
X356453D02*
D03*
X356500Y444476D02*
D03*
X403500Y450335D02*
D03*
X352476Y389500D02*
D03*
X423933Y376909D02*
D03*
X416059Y377035D02*
D03*
X431413Y427563D02*
D03*
X400311Y377665D02*
D03*
X423500Y296476D02*
D03*
X432500Y309476D02*
D03*
X370130Y283846D02*
D03*
X399500Y289476D02*
D03*
X373847Y295823D02*
D03*
X410500Y297976D02*
D03*
M02*
