G04 Layer_Color=8150272*
%FSLAX25Y25*%
%MOIN*%
G70*
G01*
G75*
%ADD48O,0.06706X0.13398*%
%ADD49C,0.03000*%
D48*
X369059Y272500D02*
D03*
X413941D02*
D03*
D49*
X374000Y347476D02*
D03*
X372000Y350976D02*
D03*
X368000Y373976D02*
D03*
X357000Y375476D02*
D03*
X371000Y370476D02*
D03*
X376500Y371476D02*
D03*
X357000D02*
D03*
X368815Y377661D02*
D03*
X376689Y377787D02*
D03*
X363500Y370476D02*
D03*
X362500Y396638D02*
D03*
X358500Y399976D02*
D03*
X386500Y420976D02*
D03*
X375500Y422976D02*
D03*
X369000Y412976D02*
D03*
X383000Y409976D02*
D03*
X381602Y406874D02*
D03*
X383000Y403476D02*
D03*
X400000Y402976D02*
D03*
X422831Y398146D02*
D03*
X360957Y409433D02*
D03*
X358398Y394079D02*
D03*
X384000Y413976D02*
D03*
Y392476D02*
D03*
X423933Y325043D02*
D03*
X384563Y325413D02*
D03*
X370453Y422429D02*
D03*
X356453D02*
D03*
X356500Y444476D02*
D03*
X403500Y450335D02*
D03*
X352476Y389500D02*
D03*
X423933Y376909D02*
D03*
X416059Y377035D02*
D03*
X431413Y427563D02*
D03*
X400311Y377665D02*
D03*
X423500Y296476D02*
D03*
X432500Y309476D02*
D03*
X370130Y283846D02*
D03*
X399500Y289476D02*
D03*
X373847Y295823D02*
D03*
X410500Y297976D02*
D03*
M02*
