G04 Layer_Color=13813960*
%FSLAX25Y25*%
%MOIN*%
G70*
G01*
G75*
G36*
X379904Y281244D02*
X379969Y281150D01*
X380039Y281062D01*
X380109Y280980D01*
X380173Y280916D01*
X380226Y280863D01*
X380261Y280828D01*
X380267Y280823D01*
X380273Y280817D01*
X380384Y280723D01*
X380501Y280635D01*
X380618Y280559D01*
X380723Y280495D01*
X380817Y280442D01*
X380858Y280425D01*
X380893Y280407D01*
X380916Y280390D01*
X380940Y280378D01*
X380951Y280372D01*
X380957D01*
Y279910D01*
X380875Y279945D01*
X380788Y279986D01*
X380706Y280021D01*
X380630Y280062D01*
X380565Y280097D01*
X380513Y280126D01*
X380478Y280150D01*
X380472Y280156D01*
X380466D01*
X380366Y280214D01*
X380279Y280278D01*
X380203Y280331D01*
X380138Y280384D01*
X380086Y280425D01*
X380045Y280454D01*
X380021Y280477D01*
X380015Y280483D01*
Y277476D01*
X379542D01*
Y281337D01*
X379852D01*
X379904Y281244D01*
D02*
G37*
G36*
X387205Y279290D02*
X386760Y279225D01*
X386719Y279284D01*
X386673Y279337D01*
X386626Y279383D01*
X386585Y279424D01*
X386544Y279454D01*
X386509Y279477D01*
X386486Y279489D01*
X386480Y279495D01*
X386409Y279530D01*
X386339Y279559D01*
X386269Y279576D01*
X386205Y279594D01*
X386146Y279600D01*
X386105Y279606D01*
X386064D01*
X385936Y279594D01*
X385819Y279571D01*
X385713Y279530D01*
X385631Y279489D01*
X385561Y279448D01*
X385514Y279407D01*
X385485Y279383D01*
X385473Y279372D01*
X385397Y279278D01*
X385339Y279173D01*
X385298Y279068D01*
X385275Y278968D01*
X385257Y278874D01*
X385251Y278834D01*
Y278799D01*
X385245Y278775D01*
Y278752D01*
Y278740D01*
Y278734D01*
X385257Y278582D01*
X385280Y278448D01*
X385321Y278330D01*
X385362Y278231D01*
X385403Y278155D01*
X385444Y278097D01*
X385468Y278061D01*
X385479Y278056D01*
Y278050D01*
X385526Y278003D01*
X385573Y277968D01*
X385666Y277903D01*
X385766Y277863D01*
X385854Y277827D01*
X385936Y277810D01*
X386000Y277804D01*
X386023Y277798D01*
X386058D01*
X386158Y277804D01*
X386251Y277827D01*
X386333Y277857D01*
X386404Y277886D01*
X386462Y277921D01*
X386503Y277944D01*
X386526Y277968D01*
X386538Y277974D01*
X386608Y278050D01*
X386661Y278137D01*
X386708Y278225D01*
X386737Y278313D01*
X386760Y278395D01*
X386778Y278459D01*
X386784Y278483D01*
X386790Y278500D01*
Y278512D01*
Y278518D01*
X387287Y278483D01*
X387275Y278395D01*
X387258Y278307D01*
X387211Y278155D01*
X387146Y278020D01*
X387082Y277909D01*
X387047Y277863D01*
X387018Y277821D01*
X386989Y277786D01*
X386965Y277757D01*
X386942Y277734D01*
X386924Y277716D01*
X386918Y277710D01*
X386913Y277705D01*
X386848Y277652D01*
X386778Y277611D01*
X386708Y277570D01*
X386638Y277535D01*
X386497Y277482D01*
X386363Y277447D01*
X386298Y277435D01*
X386240Y277430D01*
X386187Y277424D01*
X386146Y277418D01*
X386111Y277412D01*
X386058D01*
X385941Y277418D01*
X385830Y277430D01*
X385731Y277453D01*
X385631Y277482D01*
X385544Y277517D01*
X385456Y277558D01*
X385380Y277599D01*
X385315Y277646D01*
X385251Y277687D01*
X385198Y277728D01*
X385152Y277769D01*
X385117Y277804D01*
X385087Y277833D01*
X385064Y277857D01*
X385052Y277868D01*
X385046Y277874D01*
X384994Y277944D01*
X384947Y278020D01*
X384906Y278097D01*
X384871Y278178D01*
X384818Y278325D01*
X384777Y278465D01*
X384766Y278529D01*
X384760Y278588D01*
X384754Y278641D01*
X384748Y278687D01*
X384742Y278722D01*
Y278752D01*
Y278769D01*
Y278775D01*
X384748Y278874D01*
X384760Y278974D01*
X384777Y279062D01*
X384795Y279150D01*
X384824Y279225D01*
X384853Y279302D01*
X384883Y279366D01*
X384918Y279430D01*
X384953Y279483D01*
X384982Y279530D01*
X385011Y279571D01*
X385040Y279606D01*
X385058Y279635D01*
X385076Y279653D01*
X385087Y279664D01*
X385093Y279670D01*
X385157Y279734D01*
X385228Y279787D01*
X385298Y279834D01*
X385374Y279875D01*
X385444Y279910D01*
X385514Y279933D01*
X385649Y279980D01*
X385707Y279992D01*
X385766Y280004D01*
X385813Y280009D01*
X385859Y280015D01*
X385895Y280021D01*
X385941D01*
X386082Y280009D01*
X386216Y279980D01*
X386339Y279945D01*
X386444Y279898D01*
X386538Y279852D01*
X386573Y279834D01*
X386608Y279816D01*
X386632Y279799D01*
X386649Y279787D01*
X386661Y279781D01*
X386667Y279775D01*
X386456Y280811D01*
X384924D01*
Y281261D01*
X386831D01*
X387205Y279290D01*
D02*
G37*
G36*
X389101Y281331D02*
X389194Y281326D01*
X389370Y281291D01*
X389446Y281273D01*
X389522Y281250D01*
X389586Y281220D01*
X389645Y281197D01*
X389697Y281168D01*
X389744Y281144D01*
X389785Y281115D01*
X389820Y281098D01*
X389843Y281080D01*
X389861Y281062D01*
X389873Y281057D01*
X389879Y281051D01*
X389937Y280992D01*
X389984Y280934D01*
X390072Y280799D01*
X390136Y280665D01*
X390183Y280530D01*
X390218Y280413D01*
X390224Y280360D01*
X390235Y280314D01*
X390241Y280278D01*
X390247Y280249D01*
Y280232D01*
Y280226D01*
X389761Y280173D01*
X389750Y280302D01*
X389726Y280413D01*
X389697Y280507D01*
X389656Y280589D01*
X389621Y280653D01*
X389586Y280700D01*
X389563Y280723D01*
X389557Y280735D01*
X389475Y280805D01*
X389387Y280858D01*
X389294Y280893D01*
X389206Y280922D01*
X389130Y280934D01*
X389071Y280940D01*
X389048Y280945D01*
X389013D01*
X388896Y280940D01*
X388790Y280916D01*
X388703Y280887D01*
X388627Y280852D01*
X388568Y280811D01*
X388521Y280782D01*
X388498Y280758D01*
X388486Y280752D01*
X388416Y280676D01*
X388369Y280594D01*
X388334Y280518D01*
X388305Y280442D01*
X388293Y280378D01*
X388287Y280325D01*
X388281Y280290D01*
Y280284D01*
Y280278D01*
X388293Y280179D01*
X388317Y280074D01*
X388352Y279980D01*
X388393Y279892D01*
X388434Y279816D01*
X388469Y279758D01*
X388480Y279734D01*
X388492Y279717D01*
X388504Y279711D01*
Y279705D01*
X388551Y279647D01*
X388603Y279582D01*
X388662Y279518D01*
X388732Y279454D01*
X388872Y279319D01*
X389013Y279185D01*
X389141Y279073D01*
X389200Y279021D01*
X389253Y278980D01*
X389294Y278939D01*
X389323Y278916D01*
X389346Y278898D01*
X389352Y278892D01*
X389492Y278769D01*
X389621Y278658D01*
X389726Y278559D01*
X389814Y278477D01*
X389884Y278407D01*
X389931Y278354D01*
X389960Y278319D01*
X389972Y278313D01*
Y278307D01*
X390048Y278214D01*
X390107Y278126D01*
X390165Y278038D01*
X390206Y277962D01*
X390241Y277892D01*
X390265Y277845D01*
X390276Y277810D01*
X390282Y277804D01*
Y277798D01*
X390300Y277740D01*
X390317Y277681D01*
X390323Y277628D01*
X390329Y277582D01*
X390335Y277541D01*
Y277506D01*
Y277482D01*
Y277476D01*
X387790D01*
Y277927D01*
X389680D01*
X389615Y278020D01*
X389551Y278097D01*
X389522Y278132D01*
X389498Y278155D01*
X389487Y278172D01*
X389481Y278178D01*
X389452Y278208D01*
X389422Y278237D01*
X389346Y278307D01*
X389253Y278389D01*
X389165Y278471D01*
X389077Y278547D01*
X389007Y278605D01*
X388978Y278629D01*
X388954Y278646D01*
X388943Y278658D01*
X388937Y278664D01*
X388843Y278746D01*
X388761Y278816D01*
X388679Y278886D01*
X388609Y278951D01*
X388545Y279015D01*
X388486Y279068D01*
X388428Y279120D01*
X388381Y279167D01*
X388340Y279208D01*
X388305Y279243D01*
X388252Y279296D01*
X388223Y279331D01*
X388211Y279343D01*
X388135Y279436D01*
X388065Y279518D01*
X388012Y279600D01*
X387971Y279670D01*
X387936Y279729D01*
X387913Y279770D01*
X387901Y279799D01*
X387895Y279811D01*
X387860Y279892D01*
X387837Y279974D01*
X387819Y280050D01*
X387808Y280121D01*
X387802Y280179D01*
X387796Y280226D01*
Y280255D01*
Y280267D01*
X387802Y280349D01*
X387808Y280431D01*
X387848Y280577D01*
X387901Y280706D01*
X387960Y280817D01*
X388018Y280905D01*
X388047Y280940D01*
X388071Y280975D01*
X388094Y280998D01*
X388112Y281016D01*
X388118Y281021D01*
X388123Y281027D01*
X388188Y281080D01*
X388252Y281133D01*
X388322Y281174D01*
X388399Y281209D01*
X388545Y281261D01*
X388685Y281296D01*
X388749Y281314D01*
X388808Y281320D01*
X388861Y281326D01*
X388907Y281331D01*
X388948Y281337D01*
X389001D01*
X389101Y281331D01*
D02*
G37*
G36*
X392593Y282976D02*
X392055D01*
Y283515D01*
X392593D01*
Y282976D01*
D02*
G37*
G36*
X382806Y286826D02*
X382941Y286802D01*
X383064Y286767D01*
X383163Y286726D01*
X383245Y286679D01*
X383303Y286644D01*
X383327Y286633D01*
X383344Y286621D01*
X383350Y286609D01*
X383356D01*
X383455Y286516D01*
X383537Y286416D01*
X383608Y286311D01*
X383666Y286206D01*
X383713Y286112D01*
X383731Y286071D01*
X383742Y286036D01*
X383754Y286007D01*
X383766Y285983D01*
X383771Y285972D01*
Y285966D01*
X383795Y285884D01*
X383818Y285802D01*
X383847Y285621D01*
X383871Y285439D01*
X383888Y285264D01*
X383894Y285182D01*
X383900Y285106D01*
Y285041D01*
X383906Y284983D01*
Y284936D01*
Y284901D01*
Y284878D01*
Y284872D01*
X383900Y284679D01*
X383888Y284491D01*
X383871Y284328D01*
X383847Y284170D01*
X383818Y284029D01*
X383789Y283901D01*
X383754Y283784D01*
X383719Y283684D01*
X383684Y283591D01*
X383648Y283515D01*
X383619Y283450D01*
X383590Y283398D01*
X383567Y283357D01*
X383549Y283327D01*
X383537Y283310D01*
X383532Y283304D01*
X383467Y283234D01*
X383403Y283175D01*
X383333Y283123D01*
X383257Y283076D01*
X383186Y283041D01*
X383110Y283006D01*
X382970Y282959D01*
X382906Y282947D01*
X382847Y282935D01*
X382794Y282924D01*
X382748Y282918D01*
X382707Y282912D01*
X382654D01*
X382502Y282924D01*
X382367Y282947D01*
X382250Y282982D01*
X382145Y283023D01*
X382069Y283064D01*
X382005Y283099D01*
X381987Y283117D01*
X381970Y283123D01*
X381964Y283134D01*
X381958D01*
X381858Y283228D01*
X381776Y283333D01*
X381706Y283438D01*
X381648Y283544D01*
X381601Y283637D01*
X381583Y283672D01*
X381566Y283708D01*
X381554Y283737D01*
X381548Y283760D01*
X381542Y283772D01*
Y283778D01*
X381519Y283860D01*
X381496Y283942D01*
X381461Y284123D01*
X381437Y284304D01*
X381420Y284480D01*
X381414Y284562D01*
X381408Y284638D01*
Y284702D01*
X381402Y284761D01*
Y284807D01*
Y284842D01*
Y284866D01*
Y284872D01*
X381408Y285076D01*
Y285164D01*
X381414Y285252D01*
X381420Y285334D01*
X381431Y285410D01*
X381437Y285474D01*
X381443Y285539D01*
X381455Y285591D01*
X381461Y285644D01*
X381467Y285685D01*
X381478Y285714D01*
X381484Y285743D01*
Y285761D01*
X381490Y285773D01*
Y285778D01*
X381525Y285901D01*
X381566Y286013D01*
X381607Y286112D01*
X381642Y286194D01*
X381677Y286258D01*
X381706Y286311D01*
X381724Y286340D01*
X381730Y286352D01*
X381788Y286434D01*
X381853Y286504D01*
X381917Y286568D01*
X381976Y286621D01*
X382034Y286656D01*
X382075Y286685D01*
X382104Y286703D01*
X382116Y286709D01*
X382204Y286750D01*
X382297Y286785D01*
X382391Y286808D01*
X382473Y286820D01*
X382543Y286831D01*
X382601Y286837D01*
X382654D01*
X382806Y286826D01*
D02*
G37*
G36*
X392991Y279723D02*
X392453D01*
Y280261D01*
X392991D01*
Y279723D01*
D02*
G37*
G36*
Y277476D02*
X392453D01*
Y278015D01*
X392991D01*
Y277476D01*
D02*
G37*
G36*
X383204Y281326D02*
X383338Y281302D01*
X383461Y281267D01*
X383560Y281226D01*
X383642Y281179D01*
X383701Y281144D01*
X383724Y281133D01*
X383742Y281121D01*
X383748Y281109D01*
X383753D01*
X383853Y281016D01*
X383935Y280916D01*
X384005Y280811D01*
X384064Y280706D01*
X384110Y280612D01*
X384128Y280571D01*
X384140Y280536D01*
X384151Y280507D01*
X384163Y280483D01*
X384169Y280472D01*
Y280466D01*
X384192Y280384D01*
X384216Y280302D01*
X384245Y280121D01*
X384268Y279939D01*
X384286Y279764D01*
X384292Y279682D01*
X384298Y279606D01*
Y279541D01*
X384303Y279483D01*
Y279436D01*
Y279401D01*
Y279378D01*
Y279372D01*
X384298Y279179D01*
X384286Y278992D01*
X384268Y278828D01*
X384245Y278670D01*
X384216Y278529D01*
X384187Y278401D01*
X384151Y278284D01*
X384116Y278184D01*
X384081Y278091D01*
X384046Y278015D01*
X384017Y277950D01*
X383988Y277898D01*
X383964Y277857D01*
X383947Y277827D01*
X383935Y277810D01*
X383929Y277804D01*
X383865Y277734D01*
X383800Y277675D01*
X383730Y277623D01*
X383654Y277576D01*
X383584Y277541D01*
X383508Y277506D01*
X383367Y277459D01*
X383303Y277447D01*
X383245Y277435D01*
X383192Y277424D01*
X383145Y277418D01*
X383104Y277412D01*
X383051D01*
X382899Y277424D01*
X382765Y277447D01*
X382648Y277482D01*
X382543Y277523D01*
X382467Y277564D01*
X382402Y277599D01*
X382385Y277617D01*
X382367Y277623D01*
X382361Y277634D01*
X382355D01*
X382256Y277728D01*
X382174Y277833D01*
X382104Y277939D01*
X382045Y278044D01*
X381998Y278137D01*
X381981Y278172D01*
X381963Y278208D01*
X381952Y278237D01*
X381946Y278260D01*
X381940Y278272D01*
Y278278D01*
X381917Y278360D01*
X381893Y278442D01*
X381858Y278623D01*
X381835Y278804D01*
X381817Y278980D01*
X381811Y279062D01*
X381805Y279138D01*
Y279202D01*
X381800Y279261D01*
Y279307D01*
Y279343D01*
Y279366D01*
Y279372D01*
X381805Y279576D01*
Y279664D01*
X381811Y279752D01*
X381817Y279834D01*
X381829Y279910D01*
X381835Y279974D01*
X381841Y280039D01*
X381852Y280091D01*
X381858Y280144D01*
X381864Y280185D01*
X381876Y280214D01*
X381882Y280243D01*
Y280261D01*
X381887Y280273D01*
Y280278D01*
X381923Y280401D01*
X381963Y280512D01*
X382004Y280612D01*
X382039Y280694D01*
X382075Y280758D01*
X382104Y280811D01*
X382121Y280840D01*
X382127Y280852D01*
X382186Y280934D01*
X382250Y281004D01*
X382314Y281068D01*
X382373Y281121D01*
X382431Y281156D01*
X382472Y281185D01*
X382502Y281203D01*
X382513Y281209D01*
X382601Y281250D01*
X382695Y281285D01*
X382788Y281308D01*
X382870Y281320D01*
X382940Y281331D01*
X382999Y281337D01*
X383051D01*
X383204Y281326D01*
D02*
G37*
G36*
X396934Y277476D02*
X395553D01*
X395424Y277482D01*
X395307Y277488D01*
X395202Y277500D01*
X395114Y277512D01*
X395038Y277523D01*
X394986Y277529D01*
X394951Y277541D01*
X394939D01*
X394839Y277570D01*
X394752Y277599D01*
X394675Y277628D01*
X394611Y277658D01*
X394559Y277687D01*
X394517Y277710D01*
X394488Y277722D01*
X394482Y277728D01*
X394412Y277781D01*
X394348Y277839D01*
X394284Y277898D01*
X394237Y277950D01*
X394190Y278003D01*
X394161Y278044D01*
X394137Y278067D01*
X394131Y278079D01*
X394073Y278167D01*
X394020Y278260D01*
X393973Y278354D01*
X393938Y278442D01*
X393909Y278523D01*
X393886Y278582D01*
X393880Y278605D01*
X393874Y278623D01*
X393868Y278635D01*
Y278641D01*
X393833Y278769D01*
X393810Y278904D01*
X393786Y279038D01*
X393775Y279155D01*
X393769Y279261D01*
Y279307D01*
X393763Y279343D01*
Y279378D01*
Y279401D01*
Y279413D01*
Y279419D01*
X393769Y279606D01*
X393786Y279775D01*
X393810Y279927D01*
X393827Y279998D01*
X393839Y280062D01*
X393851Y280121D01*
X393868Y280173D01*
X393880Y280220D01*
X393892Y280255D01*
X393903Y280284D01*
X393909Y280308D01*
X393915Y280319D01*
Y280325D01*
X393979Y280472D01*
X394050Y280600D01*
X394126Y280711D01*
X394202Y280805D01*
X394266Y280881D01*
X394319Y280940D01*
X394360Y280975D01*
X394366Y280986D01*
X394371D01*
X394465Y281057D01*
X394559Y281115D01*
X394652Y281162D01*
X394740Y281197D01*
X394816Y281226D01*
X394880Y281244D01*
X394904Y281256D01*
X394915D01*
X394927Y281261D01*
X394933D01*
X395026Y281279D01*
X395138Y281296D01*
X395255Y281308D01*
X395360Y281314D01*
X395459Y281320D01*
X396934D01*
Y277476D01*
D02*
G37*
G36*
X402005D02*
X401497D01*
Y279044D01*
X400514D01*
X400367Y279050D01*
X400233Y279056D01*
X400110Y279073D01*
X399993Y279097D01*
X399894Y279120D01*
X399800Y279150D01*
X399718Y279179D01*
X399648Y279214D01*
X399584Y279243D01*
X399531Y279272D01*
X399490Y279302D01*
X399449Y279325D01*
X399426Y279348D01*
X399408Y279366D01*
X399396Y279372D01*
X399391Y279378D01*
X399332Y279442D01*
X399285Y279512D01*
X399244Y279582D01*
X399209Y279653D01*
X399151Y279787D01*
X399116Y279922D01*
X399098Y279980D01*
X399092Y280033D01*
X399086Y280085D01*
X399080Y280126D01*
X399075Y280161D01*
Y280185D01*
Y280203D01*
Y280208D01*
X399080Y280314D01*
X399092Y280413D01*
X399110Y280501D01*
X399133Y280577D01*
X399157Y280641D01*
X399174Y280688D01*
X399186Y280717D01*
X399192Y280729D01*
X399238Y280817D01*
X399291Y280887D01*
X399344Y280951D01*
X399391Y281004D01*
X399432Y281045D01*
X399467Y281074D01*
X399496Y281092D01*
X399502Y281098D01*
X399578Y281144D01*
X399660Y281185D01*
X399736Y281214D01*
X399812Y281238D01*
X399876Y281256D01*
X399929Y281267D01*
X399964Y281279D01*
X399976D01*
X400058Y281291D01*
X400151Y281302D01*
X400251Y281308D01*
X400344Y281314D01*
X400432Y281320D01*
X402005D01*
Y277476D01*
D02*
G37*
G36*
X398338D02*
X397829D01*
Y281320D01*
X398338D01*
Y277476D01*
D02*
G37*
G36*
X379811Y286831D02*
X379905Y286820D01*
X379992Y286802D01*
X380074Y286785D01*
X380220Y286726D01*
X380285Y286691D01*
X380343Y286662D01*
X380402Y286627D01*
X380449Y286592D01*
X380490Y286562D01*
X380519Y286539D01*
X380548Y286516D01*
X380566Y286498D01*
X380577Y286486D01*
X380583Y286480D01*
X380642Y286410D01*
X380694Y286340D01*
X380741Y286264D01*
X380776Y286182D01*
X380811Y286106D01*
X380840Y286024D01*
X380882Y285878D01*
X380893Y285808D01*
X380905Y285743D01*
X380911Y285685D01*
X380917Y285638D01*
X380922Y285597D01*
Y285562D01*
Y285544D01*
Y285539D01*
X380917Y285433D01*
X380911Y285334D01*
X380893Y285246D01*
X380870Y285158D01*
X380846Y285076D01*
X380817Y285000D01*
X380788Y284930D01*
X380759Y284872D01*
X380729Y284813D01*
X380700Y284767D01*
X380671Y284725D01*
X380647Y284690D01*
X380624Y284661D01*
X380607Y284644D01*
X380601Y284632D01*
X380595Y284626D01*
X380531Y284568D01*
X380466Y284515D01*
X380396Y284468D01*
X380332Y284427D01*
X380261Y284392D01*
X380197Y284363D01*
X380068Y284322D01*
X379957Y284298D01*
X379910Y284293D01*
X379870Y284287D01*
X379834Y284281D01*
X379788D01*
X379682Y284287D01*
X379583Y284304D01*
X379495Y284322D01*
X379419Y284351D01*
X379355Y284374D01*
X379302Y284392D01*
X379273Y284410D01*
X379261Y284416D01*
X379173Y284474D01*
X379097Y284532D01*
X379027Y284597D01*
X378974Y284655D01*
X378928Y284702D01*
X378898Y284749D01*
X378875Y284772D01*
X378869Y284784D01*
Y284743D01*
Y284714D01*
Y284696D01*
Y284690D01*
Y284579D01*
X378881Y284474D01*
X378892Y284380D01*
X378904Y284293D01*
X378916Y284217D01*
X378928Y284158D01*
X378933Y284140D01*
Y284123D01*
X378939Y284117D01*
Y284111D01*
X378969Y284012D01*
X378998Y283924D01*
X379027Y283848D01*
X379050Y283784D01*
X379080Y283731D01*
X379097Y283690D01*
X379109Y283667D01*
X379115Y283661D01*
X379156Y283602D01*
X379203Y283550D01*
X379243Y283503D01*
X379290Y283468D01*
X379325Y283438D01*
X379355Y283415D01*
X379378Y283403D01*
X379384Y283398D01*
X379448Y283363D01*
X379513Y283339D01*
X379577Y283321D01*
X379635Y283310D01*
X379688Y283304D01*
X379729Y283298D01*
X379764D01*
X379858Y283304D01*
X379940Y283321D01*
X380010Y283345D01*
X380068Y283368D01*
X380121Y283392D01*
X380156Y283415D01*
X380180Y283433D01*
X380185Y283438D01*
X380244Y283497D01*
X380291Y283573D01*
X380326Y283649D01*
X380355Y283725D01*
X380378Y283789D01*
X380390Y283848D01*
X380396Y283871D01*
X380402Y283889D01*
Y283895D01*
Y283901D01*
X380852Y283866D01*
X380823Y283702D01*
X380776Y283561D01*
X380724Y283438D01*
X380665Y283339D01*
X380607Y283263D01*
X380560Y283205D01*
X380525Y283169D01*
X380519Y283164D01*
X380513Y283158D01*
X380396Y283076D01*
X380279Y283017D01*
X380156Y282970D01*
X380039Y282941D01*
X379934Y282924D01*
X379887Y282918D01*
X379852D01*
X379817Y282912D01*
X379776D01*
X379624Y282924D01*
X379478Y282947D01*
X379355Y282982D01*
X379243Y283023D01*
X379156Y283064D01*
X379121Y283082D01*
X379091Y283099D01*
X379062Y283117D01*
X379045Y283123D01*
X379039Y283134D01*
X379033D01*
X378922Y283228D01*
X378828Y283333D01*
X378746Y283444D01*
X378676Y283556D01*
X378623Y283649D01*
X378606Y283690D01*
X378588Y283731D01*
X378577Y283760D01*
X378565Y283784D01*
X378559Y283795D01*
Y283801D01*
X378530Y283889D01*
X378506Y283977D01*
X378466Y284170D01*
X378436Y284369D01*
X378413Y284556D01*
X378407Y284644D01*
X378401Y284720D01*
Y284796D01*
X378395Y284854D01*
Y284907D01*
Y284942D01*
Y284971D01*
Y284977D01*
Y285106D01*
X378401Y285229D01*
X378413Y285340D01*
X378419Y285445D01*
X378430Y285539D01*
X378448Y285626D01*
X378460Y285708D01*
X378477Y285778D01*
X378495Y285843D01*
X378506Y285901D01*
X378518Y285948D01*
X378536Y285983D01*
X378541Y286013D01*
X378553Y286036D01*
X378559Y286048D01*
Y286053D01*
X378623Y286188D01*
X378699Y286305D01*
X378781Y286399D01*
X378857Y286486D01*
X378928Y286551D01*
X378980Y286597D01*
X379004Y286609D01*
X379021Y286621D01*
X379027Y286633D01*
X379033D01*
X379150Y286703D01*
X379273Y286750D01*
X379384Y286785D01*
X379489Y286814D01*
X379583Y286826D01*
X379624Y286831D01*
X379653D01*
X379682Y286837D01*
X379717D01*
X379811Y286831D01*
D02*
G37*
G36*
X385719D02*
X385813Y286826D01*
X385988Y286791D01*
X386065Y286773D01*
X386141Y286750D01*
X386205Y286720D01*
X386263Y286697D01*
X386316Y286668D01*
X386363Y286644D01*
X386404Y286615D01*
X386439Y286597D01*
X386462Y286580D01*
X386480Y286562D01*
X386492Y286557D01*
X386497Y286551D01*
X386556Y286492D01*
X386603Y286434D01*
X386690Y286299D01*
X386755Y286165D01*
X386802Y286030D01*
X386837Y285913D01*
X386843Y285860D01*
X386854Y285814D01*
X386860Y285778D01*
X386866Y285749D01*
Y285732D01*
Y285726D01*
X386381Y285673D01*
X386369Y285802D01*
X386345Y285913D01*
X386316Y286007D01*
X386275Y286089D01*
X386240Y286153D01*
X386205Y286200D01*
X386182Y286223D01*
X386176Y286235D01*
X386094Y286305D01*
X386006Y286358D01*
X385912Y286393D01*
X385825Y286422D01*
X385749Y286434D01*
X385690Y286440D01*
X385667Y286445D01*
X385632D01*
X385515Y286440D01*
X385409Y286416D01*
X385322Y286387D01*
X385246Y286352D01*
X385187Y286311D01*
X385140Y286282D01*
X385117Y286258D01*
X385105Y286252D01*
X385035Y286176D01*
X384988Y286094D01*
X384953Y286018D01*
X384924Y285942D01*
X384912Y285878D01*
X384906Y285825D01*
X384900Y285790D01*
Y285784D01*
Y285778D01*
X384912Y285679D01*
X384936Y285574D01*
X384971Y285480D01*
X385012Y285392D01*
X385053Y285316D01*
X385088Y285258D01*
X385099Y285234D01*
X385111Y285217D01*
X385123Y285211D01*
Y285205D01*
X385170Y285147D01*
X385222Y285082D01*
X385281Y285018D01*
X385351Y284954D01*
X385491Y284819D01*
X385632Y284685D01*
X385760Y284573D01*
X385819Y284521D01*
X385872Y284480D01*
X385912Y284439D01*
X385942Y284416D01*
X385965Y284398D01*
X385971Y284392D01*
X386111Y284269D01*
X386240Y284158D01*
X386345Y284059D01*
X386433Y283977D01*
X386503Y283907D01*
X386550Y283854D01*
X386579Y283819D01*
X386591Y283813D01*
Y283807D01*
X386667Y283714D01*
X386726Y283626D01*
X386784Y283538D01*
X386825Y283462D01*
X386860Y283392D01*
X386884Y283345D01*
X386895Y283310D01*
X386901Y283304D01*
Y283298D01*
X386919Y283240D01*
X386936Y283181D01*
X386942Y283128D01*
X386948Y283082D01*
X386954Y283041D01*
Y283006D01*
Y282982D01*
Y282976D01*
X384409D01*
Y283427D01*
X386299D01*
X386234Y283520D01*
X386170Y283596D01*
X386141Y283632D01*
X386117Y283655D01*
X386105Y283672D01*
X386100Y283678D01*
X386070Y283708D01*
X386041Y283737D01*
X385965Y283807D01*
X385872Y283889D01*
X385784Y283971D01*
X385696Y284047D01*
X385626Y284105D01*
X385597Y284129D01*
X385573Y284146D01*
X385561Y284158D01*
X385556Y284164D01*
X385462Y284246D01*
X385380Y284316D01*
X385298Y284386D01*
X385228Y284451D01*
X385164Y284515D01*
X385105Y284568D01*
X385047Y284620D01*
X385000Y284667D01*
X384959Y284708D01*
X384924Y284743D01*
X384871Y284796D01*
X384842Y284831D01*
X384830Y284842D01*
X384754Y284936D01*
X384684Y285018D01*
X384631Y285100D01*
X384590Y285170D01*
X384555Y285229D01*
X384532Y285270D01*
X384520Y285299D01*
X384514Y285311D01*
X384479Y285392D01*
X384456Y285474D01*
X384438Y285550D01*
X384427Y285621D01*
X384421Y285679D01*
X384415Y285726D01*
Y285755D01*
Y285767D01*
X384421Y285849D01*
X384427Y285931D01*
X384468Y286077D01*
X384520Y286206D01*
X384579Y286317D01*
X384637Y286404D01*
X384666Y286440D01*
X384690Y286475D01*
X384713Y286498D01*
X384731Y286516D01*
X384737Y286522D01*
X384742Y286527D01*
X384807Y286580D01*
X384871Y286633D01*
X384941Y286674D01*
X385017Y286709D01*
X385164Y286761D01*
X385304Y286796D01*
X385368Y286814D01*
X385427Y286820D01*
X385480Y286826D01*
X385526Y286831D01*
X385567Y286837D01*
X385620D01*
X385719Y286831D01*
D02*
G37*
G36*
X392593Y285223D02*
X392055D01*
Y285761D01*
X392593D01*
Y285223D01*
D02*
G37*
G36*
X388457Y286744D02*
X388522Y286650D01*
X388592Y286562D01*
X388662Y286480D01*
X388726Y286416D01*
X388779Y286364D01*
X388814Y286328D01*
X388820Y286323D01*
X388826Y286317D01*
X388937Y286223D01*
X389054Y286135D01*
X389171Y286059D01*
X389276Y285995D01*
X389370Y285942D01*
X389411Y285925D01*
X389446Y285907D01*
X389469Y285890D01*
X389493Y285878D01*
X389504Y285872D01*
X389510D01*
Y285410D01*
X389428Y285445D01*
X389341Y285486D01*
X389259Y285521D01*
X389183Y285562D01*
X389118Y285597D01*
X389066Y285626D01*
X389031Y285650D01*
X389025Y285656D01*
X389019D01*
X388919Y285714D01*
X388832Y285778D01*
X388756Y285831D01*
X388691Y285884D01*
X388639Y285925D01*
X388598Y285954D01*
X388574Y285977D01*
X388568Y285983D01*
Y282976D01*
X388094D01*
Y286837D01*
X388405D01*
X388457Y286744D01*
D02*
G37*
G36*
X397940Y282976D02*
X397431D01*
Y286820D01*
X397940D01*
Y282976D01*
D02*
G37*
G36*
X396536D02*
X395156D01*
X395027Y282982D01*
X394910Y282988D01*
X394805Y283000D01*
X394717Y283012D01*
X394641Y283023D01*
X394588Y283029D01*
X394553Y283041D01*
X394541D01*
X394442Y283070D01*
X394354Y283099D01*
X394278Y283128D01*
X394214Y283158D01*
X394161Y283187D01*
X394120Y283210D01*
X394091Y283222D01*
X394085Y283228D01*
X394015Y283281D01*
X393950Y283339D01*
X393886Y283398D01*
X393839Y283450D01*
X393793Y283503D01*
X393763Y283544D01*
X393740Y283567D01*
X393734Y283579D01*
X393675Y283667D01*
X393623Y283760D01*
X393576Y283854D01*
X393541Y283942D01*
X393512Y284023D01*
X393488Y284082D01*
X393482Y284105D01*
X393477Y284123D01*
X393471Y284135D01*
Y284140D01*
X393436Y284269D01*
X393412Y284404D01*
X393389Y284538D01*
X393377Y284655D01*
X393371Y284761D01*
Y284807D01*
X393365Y284842D01*
Y284878D01*
Y284901D01*
Y284913D01*
Y284919D01*
X393371Y285106D01*
X393389Y285275D01*
X393412Y285427D01*
X393430Y285498D01*
X393441Y285562D01*
X393453Y285621D01*
X393471Y285673D01*
X393482Y285720D01*
X393494Y285755D01*
X393506Y285784D01*
X393512Y285808D01*
X393517Y285820D01*
Y285825D01*
X393582Y285972D01*
X393652Y286100D01*
X393728Y286211D01*
X393804Y286305D01*
X393868Y286381D01*
X393921Y286440D01*
X393962Y286475D01*
X393968Y286486D01*
X393974D01*
X394067Y286557D01*
X394161Y286615D01*
X394255Y286662D01*
X394342Y286697D01*
X394418Y286726D01*
X394483Y286744D01*
X394506Y286755D01*
X394518D01*
X394530Y286761D01*
X394535D01*
X394629Y286779D01*
X394740Y286796D01*
X394857Y286808D01*
X394962Y286814D01*
X395062Y286820D01*
X396536D01*
Y282976D01*
D02*
G37*
G36*
X400514D02*
X399993D01*
X398490Y286820D01*
X399005D01*
X400046Y284029D01*
X400087Y283912D01*
X400128Y283795D01*
X400163Y283690D01*
X400192Y283596D01*
X400216Y283515D01*
X400233Y283450D01*
X400239Y283427D01*
X400245Y283409D01*
X400251Y283403D01*
Y283398D01*
X400315Y283620D01*
X400350Y283725D01*
X400385Y283825D01*
X400415Y283907D01*
X400432Y283971D01*
X400444Y283994D01*
X400450Y284012D01*
X400456Y284023D01*
Y284029D01*
X401450Y286820D01*
X402006D01*
X400514Y282976D01*
D02*
G37*
G36*
X357400Y293476D02*
X357404Y293497D01*
X358519Y293159D01*
X359405Y292685D01*
X361900Y294676D01*
X363600Y292976D01*
X361600Y290476D01*
X361609Y290482D01*
X362082Y289595D01*
X362420Y288481D01*
X365600Y288076D01*
Y285677D01*
X362400Y285354D01*
X362427Y285349D01*
X362059Y284134D01*
X361606Y283287D01*
X363600Y280817D01*
X361900Y279120D01*
X359400Y281138D01*
X359408Y281125D01*
X358421Y280597D01*
X358412Y280595D01*
X357000Y284035D01*
D01*
Y284035D01*
Y284035D01*
X357368Y284187D01*
X358013Y284682D01*
X358508Y285327D01*
X358819Y286078D01*
X358925Y286884D01*
X358819Y287690D01*
X358508Y288441D01*
X358013Y289086D01*
X357368Y289581D01*
X356617Y289892D01*
X355811Y289998D01*
X355005Y289892D01*
X354254Y289581D01*
X353609Y289086D01*
X353115Y288441D01*
X352803Y287690D01*
X352697Y286884D01*
X352698Y286876D01*
X352697Y286876D01*
X352697Y286876D01*
X352803Y286073D01*
X353113Y285325D01*
X353606Y284683D01*
X354248Y284190D01*
X354623Y284035D01*
X353210Y280624D01*
X353198Y280594D01*
X352206Y281124D01*
X349740Y279120D01*
X348044Y280817D01*
X350061Y283291D01*
X350048Y283282D01*
X349518Y284274D01*
X349191Y285351D01*
X346031Y285677D01*
Y288076D01*
X349207Y288476D01*
X349196Y288479D01*
X349493Y289456D01*
X350044Y290488D01*
X348044Y292976D01*
X349740Y294676D01*
X352214Y292676D01*
X352211Y292682D01*
X353058Y293135D01*
X354272Y293503D01*
X354600Y296676D01*
X357000D01*
X357400Y293476D01*
D02*
G37*
%LPC*%
G36*
X379688Y286445D02*
X379659D01*
X379548Y286434D01*
X379448Y286410D01*
X379361Y286369D01*
X379285Y286328D01*
X379220Y286282D01*
X379179Y286241D01*
X379150Y286217D01*
X379138Y286206D01*
X379068Y286106D01*
X379015Y286001D01*
X378974Y285895D01*
X378951Y285790D01*
X378933Y285697D01*
X378928Y285662D01*
Y285626D01*
X378922Y285597D01*
Y285574D01*
Y285562D01*
Y285556D01*
X378933Y285416D01*
X378957Y285287D01*
X378992Y285182D01*
X379027Y285088D01*
X379068Y285018D01*
X379103Y284965D01*
X379127Y284936D01*
X379138Y284924D01*
X379220Y284848D01*
X379308Y284790D01*
X379401Y284755D01*
X379483Y284725D01*
X379559Y284708D01*
X379618Y284702D01*
X379641Y284696D01*
X379671D01*
X379788Y284708D01*
X379893Y284731D01*
X379987Y284767D01*
X380068Y284813D01*
X380133Y284854D01*
X380180Y284889D01*
X380209Y284913D01*
X380220Y284924D01*
X380291Y285018D01*
X380343Y285112D01*
X380384Y285211D01*
X380408Y285311D01*
X380425Y285392D01*
X380431Y285463D01*
X380437Y285486D01*
Y285504D01*
Y285515D01*
Y285521D01*
X380425Y285667D01*
X380402Y285796D01*
X380367Y285913D01*
X380320Y286007D01*
X380279Y286083D01*
X380244Y286141D01*
X380220Y286176D01*
X380209Y286188D01*
X380162Y286235D01*
X380115Y286276D01*
X380022Y286334D01*
X379934Y286381D01*
X379846Y286416D01*
X379770Y286434D01*
X379712Y286440D01*
X379688Y286445D01*
D02*
G37*
G36*
X396027Y286369D02*
X395226D01*
X395068Y286364D01*
X394933Y286358D01*
X394822Y286346D01*
X394728Y286328D01*
X394658Y286311D01*
X394612Y286299D01*
X394582Y286293D01*
X394570Y286287D01*
X394471Y286235D01*
X394377Y286171D01*
X394296Y286100D01*
X394225Y286024D01*
X394167Y285960D01*
X394126Y285901D01*
X394108Y285878D01*
X394103Y285860D01*
X394091Y285855D01*
Y285849D01*
X394056Y285784D01*
X394026Y285714D01*
X393974Y285568D01*
X393939Y285416D01*
X393915Y285264D01*
X393910Y285199D01*
X393904Y285135D01*
X393898Y285076D01*
X393892Y285024D01*
Y284983D01*
Y284954D01*
Y284930D01*
Y284924D01*
X393898Y284767D01*
X393910Y284626D01*
X393927Y284497D01*
X393945Y284386D01*
X393962Y284298D01*
X393974Y284263D01*
X393980Y284234D01*
X393986Y284211D01*
X393991Y284193D01*
X393997Y284187D01*
Y284181D01*
X394038Y284076D01*
X394085Y283977D01*
X394132Y283895D01*
X394173Y283825D01*
X394214Y283772D01*
X394249Y283731D01*
X394272Y283702D01*
X394278Y283696D01*
X394331Y283649D01*
X394383Y283608D01*
X394442Y283579D01*
X394500Y283550D01*
X394547Y283526D01*
X394588Y283509D01*
X394612Y283503D01*
X394623Y283497D01*
X394711Y283474D01*
X394805Y283456D01*
X394904Y283444D01*
X394998Y283438D01*
X395085Y283433D01*
X395150Y283427D01*
X396027D01*
Y286369D01*
D02*
G37*
G36*
X382689Y286445D02*
X382660D01*
X382601Y286440D01*
X382543Y286434D01*
X382438Y286399D01*
X382344Y286346D01*
X382262Y286287D01*
X382198Y286229D01*
X382151Y286176D01*
X382122Y286141D01*
X382110Y286135D01*
Y286129D01*
X382069Y286065D01*
X382034Y285989D01*
X382005Y285901D01*
X381981Y285802D01*
X381940Y285597D01*
X381917Y285387D01*
X381905Y285281D01*
X381899Y285188D01*
X381894Y285100D01*
Y285024D01*
X381888Y284960D01*
Y284913D01*
Y284883D01*
Y284872D01*
Y284702D01*
X381899Y284544D01*
X381905Y284404D01*
X381923Y284275D01*
X381940Y284158D01*
X381958Y284053D01*
X381976Y283965D01*
X381999Y283883D01*
X382022Y283819D01*
X382040Y283760D01*
X382057Y283708D01*
X382075Y283672D01*
X382087Y283643D01*
X382098Y283626D01*
X382110Y283614D01*
Y283608D01*
X382151Y283556D01*
X382198Y283509D01*
X382244Y283462D01*
X382291Y283427D01*
X382379Y283374D01*
X382467Y283339D01*
X382543Y283316D01*
X382601Y283304D01*
X382625Y283298D01*
X382654D01*
X382713Y283304D01*
X382771Y283310D01*
X382876Y283345D01*
X382970Y283398D01*
X383052Y283456D01*
X383116Y283509D01*
X383163Y283561D01*
X383192Y283596D01*
X383204Y283602D01*
Y283608D01*
X383239Y283672D01*
X383274Y283754D01*
X383303Y283842D01*
X383327Y283936D01*
X383368Y284146D01*
X383391Y284357D01*
X383403Y284456D01*
X383409Y284556D01*
X383415Y284644D01*
Y284720D01*
X383420Y284784D01*
Y284831D01*
Y284860D01*
Y284872D01*
Y285041D01*
X383409Y285199D01*
X383397Y285340D01*
X383385Y285469D01*
X383362Y285591D01*
X383344Y285697D01*
X383321Y285790D01*
X383298Y285872D01*
X383280Y285942D01*
X383257Y286007D01*
X383233Y286053D01*
X383216Y286094D01*
X383204Y286124D01*
X383192Y286147D01*
X383180Y286159D01*
Y286165D01*
X383145Y286211D01*
X383104Y286258D01*
X383017Y286328D01*
X382929Y286375D01*
X382847Y286410D01*
X382771Y286434D01*
X382713Y286440D01*
X382689Y286445D01*
D02*
G37*
G36*
X401497Y280869D02*
X400403D01*
X400297Y280863D01*
X400215Y280858D01*
X400151Y280852D01*
X400104Y280846D01*
X400069Y280840D01*
X400052Y280834D01*
X400046D01*
X399976Y280805D01*
X399911Y280776D01*
X399859Y280735D01*
X399812Y280700D01*
X399771Y280665D01*
X399747Y280635D01*
X399730Y280612D01*
X399724Y280606D01*
X399683Y280542D01*
X399654Y280472D01*
X399630Y280401D01*
X399619Y280337D01*
X399607Y280278D01*
X399601Y280232D01*
Y280203D01*
Y280191D01*
X399613Y280074D01*
X399636Y279969D01*
X399665Y279881D01*
X399707Y279811D01*
X399747Y279752D01*
X399777Y279711D01*
X399800Y279682D01*
X399812Y279676D01*
X399853Y279647D01*
X399900Y279618D01*
X400005Y279571D01*
X400122Y279541D01*
X400239Y279518D01*
X400344Y279506D01*
X400385Y279501D01*
X400426D01*
X400461Y279495D01*
X401497D01*
Y280869D01*
D02*
G37*
G36*
X383087Y280945D02*
X383057D01*
X382999Y280940D01*
X382940Y280934D01*
X382835Y280899D01*
X382741Y280846D01*
X382660Y280787D01*
X382595Y280729D01*
X382548Y280676D01*
X382519Y280641D01*
X382507Y280635D01*
Y280629D01*
X382467Y280565D01*
X382431Y280489D01*
X382402Y280401D01*
X382379Y280302D01*
X382338Y280097D01*
X382314Y279887D01*
X382303Y279781D01*
X382297Y279688D01*
X382291Y279600D01*
Y279524D01*
X382285Y279460D01*
Y279413D01*
Y279383D01*
Y279372D01*
Y279202D01*
X382297Y279044D01*
X382303Y278904D01*
X382320Y278775D01*
X382338Y278658D01*
X382355Y278553D01*
X382373Y278465D01*
X382396Y278383D01*
X382420Y278319D01*
X382437Y278260D01*
X382455Y278208D01*
X382472Y278172D01*
X382484Y278143D01*
X382496Y278126D01*
X382507Y278114D01*
Y278108D01*
X382548Y278056D01*
X382595Y278009D01*
X382642Y277962D01*
X382689Y277927D01*
X382777Y277874D01*
X382864Y277839D01*
X382940Y277816D01*
X382999Y277804D01*
X383022Y277798D01*
X383051D01*
X383110Y277804D01*
X383169Y277810D01*
X383274Y277845D01*
X383367Y277898D01*
X383449Y277956D01*
X383514Y278009D01*
X383560Y278061D01*
X383590Y278097D01*
X383601Y278102D01*
Y278108D01*
X383636Y278172D01*
X383672Y278254D01*
X383701Y278342D01*
X383724Y278436D01*
X383765Y278646D01*
X383789Y278857D01*
X383800Y278956D01*
X383806Y279056D01*
X383812Y279144D01*
Y279220D01*
X383818Y279284D01*
Y279331D01*
Y279360D01*
Y279372D01*
Y279541D01*
X383806Y279699D01*
X383794Y279840D01*
X383783Y279969D01*
X383759Y280091D01*
X383742Y280197D01*
X383718Y280290D01*
X383695Y280372D01*
X383678Y280442D01*
X383654Y280507D01*
X383631Y280554D01*
X383613Y280594D01*
X383601Y280624D01*
X383590Y280647D01*
X383578Y280659D01*
Y280665D01*
X383543Y280711D01*
X383502Y280758D01*
X383414Y280828D01*
X383327Y280875D01*
X383245Y280910D01*
X383169Y280934D01*
X383110Y280940D01*
X383087Y280945D01*
D02*
G37*
G36*
X396425Y280869D02*
X395623D01*
X395465Y280863D01*
X395331Y280858D01*
X395219Y280846D01*
X395126Y280828D01*
X395056Y280811D01*
X395009Y280799D01*
X394980Y280793D01*
X394968Y280787D01*
X394869Y280735D01*
X394775Y280670D01*
X394693Y280600D01*
X394623Y280524D01*
X394564Y280460D01*
X394523Y280401D01*
X394506Y280378D01*
X394500Y280360D01*
X394488Y280355D01*
Y280349D01*
X394453Y280284D01*
X394424Y280214D01*
X394371Y280068D01*
X394336Y279916D01*
X394313Y279764D01*
X394307Y279699D01*
X394301Y279635D01*
X394295Y279576D01*
X394289Y279524D01*
Y279483D01*
Y279454D01*
Y279430D01*
Y279424D01*
X394295Y279267D01*
X394307Y279126D01*
X394324Y278997D01*
X394342Y278886D01*
X394360Y278799D01*
X394371Y278763D01*
X394377Y278734D01*
X394383Y278711D01*
X394389Y278693D01*
X394395Y278687D01*
Y278681D01*
X394436Y278576D01*
X394482Y278477D01*
X394529Y278395D01*
X394570Y278325D01*
X394611Y278272D01*
X394646Y278231D01*
X394670Y278202D01*
X394675Y278196D01*
X394728Y278149D01*
X394781Y278108D01*
X394839Y278079D01*
X394898Y278050D01*
X394945Y278026D01*
X394986Y278009D01*
X395009Y278003D01*
X395021Y277997D01*
X395108Y277974D01*
X395202Y277956D01*
X395302Y277944D01*
X395395Y277939D01*
X395483Y277933D01*
X395547Y277927D01*
X396425D01*
Y280869D01*
D02*
G37*
%LPD*%
M02*
