M48
;Layer_Color=6321
;FILE_FORMAT=2:5
INCH,LZ
;TYPE=PLATED
T1F00S00C0.01200
;TYPE=NON_PLATED
T3F00S00C0.04921
%
T01
X037013Y0283846
X0373847Y0295823
X03995Y0289476
X04105Y0297976
X04235Y0296476
X04325Y0309476
X0423933Y0325043
X0384563Y0325413
X0374Y0347476
X0372Y0350976
X0371Y0370476
X0368Y0373976
X0368815Y0377661
X0376689Y0377787
X03765Y0371476
X03635Y0370476
X0357Y0371476
Y0375476
X0352476Y03895
X0358398Y0394079
X03585Y0399976
X03625Y0396638
X0360957Y0409433
X0369Y0412976
X0370453Y0422429
X03755Y0422976
X03865Y0420976
X0384Y0413976
X0383Y0409976
X0381602Y0406874
X0383Y0403476
X0384Y0392476
X04Y0402976
X0400311Y0377665
X0416059Y0377035
X0423933Y0376909
X0422831Y0398146
X0431413Y0427563
X04035Y0450335
X03565Y0444476
X0356453Y0422429
T03
X0382642Y02725
X0400358
M30
